<?xml version="1.0" encoding="UTF-8" standalone="no"?>
<!DOCTYPE svg PUBLIC "-//W3C//DTD SVG 1.1//EN"
 "http://www.w3.org/Graphics/SVG/1.1/DTD/svg11.dtd">
<!-- Generated by graphviz version 2.49.3 (20211023.0002)
 -->
<!-- Title: Tree Pages: 1 -->
<svg width="791pt" height="790pt"
 viewBox="0.00 0.00 791.00 790.00" xmlns="http://www.w3.org/2000/svg" xmlns:xlink="http://www.w3.org/1999/xlink">
<g id="graph0" class="graph" transform="scale(1 1) rotate(0) translate(4 786)">
<title>Tree</title>
<polygon fill="white" stroke="transparent" points="-4,4 -4,-786 787,-786 787,4 -4,4"/>
<!-- 0 -->
<g id="node1" class="node">
<title>0</title>
<polygon fill="#faf8fe" stroke="black" points="287.5,-782 127.5,-782 127.5,-699 287.5,-699 287.5,-782"/>
<text text-anchor="middle" x="207.5" y="-766.8" font-family="Helvetica,sans-Serif" font-size="14.00">petal width (cm) &lt;= 0.8</text>
<text text-anchor="middle" x="207.5" y="-751.8" font-family="Helvetica,sans-Serif" font-size="14.00">gini = 0.665</text>
<text text-anchor="middle" x="207.5" y="-736.8" font-family="Helvetica,sans-Serif" font-size="14.00">samples = 120</text>
<text text-anchor="middle" x="207.5" y="-721.8" font-family="Helvetica,sans-Serif" font-size="14.00">value = [40, 37, 43]</text>
<text text-anchor="middle" x="207.5" y="-706.8" font-family="Helvetica,sans-Serif" font-size="14.00">class = virginica</text>
</g>
<!-- 1 -->
<g id="node2" class="node">
<title>1</title>
<polygon fill="#e58139" stroke="black" points="185,-655.5 64,-655.5 64,-587.5 185,-587.5 185,-655.5"/>
<text text-anchor="middle" x="124.5" y="-640.3" font-family="Helvetica,sans-Serif" font-size="14.00">gini = 0.0</text>
<text text-anchor="middle" x="124.5" y="-625.3" font-family="Helvetica,sans-Serif" font-size="14.00">samples = 40</text>
<text text-anchor="middle" x="124.5" y="-610.3" font-family="Helvetica,sans-Serif" font-size="14.00">value = [40, 0, 0]</text>
<text text-anchor="middle" x="124.5" y="-595.3" font-family="Helvetica,sans-Serif" font-size="14.00">class = setosa</text>
</g>
<!-- 0&#45;&gt;1 -->
<g id="edge1" class="edge">
<title>0&#45;&gt;1</title>
<path fill="none" stroke="black" d="M178.7,-698.91C170.72,-687.65 162.04,-675.42 154.02,-664.11"/>
<polygon fill="black" stroke="black" points="156.67,-661.8 148.03,-655.67 150.96,-665.85 156.67,-661.8"/>
<text text-anchor="middle" x="143.84" y="-676.61" font-family="Helvetica,sans-Serif" font-size="14.00">True</text>
</g>
<!-- 2 -->
<g id="node3" class="node">
<title>2</title>
<polygon fill="#ede3fb" stroke="black" points="377.5,-663 203.5,-663 203.5,-580 377.5,-580 377.5,-663"/>
<text text-anchor="middle" x="290.5" y="-647.8" font-family="Helvetica,sans-Serif" font-size="14.00">petal length (cm) &lt;= 4.75</text>
<text text-anchor="middle" x="290.5" y="-632.8" font-family="Helvetica,sans-Serif" font-size="14.00">gini = 0.497</text>
<text text-anchor="middle" x="290.5" y="-617.8" font-family="Helvetica,sans-Serif" font-size="14.00">samples = 80</text>
<text text-anchor="middle" x="290.5" y="-602.8" font-family="Helvetica,sans-Serif" font-size="14.00">value = [0, 37, 43]</text>
<text text-anchor="middle" x="290.5" y="-587.8" font-family="Helvetica,sans-Serif" font-size="14.00">class = virginica</text>
</g>
<!-- 0&#45;&gt;2 -->
<g id="edge2" class="edge">
<title>0&#45;&gt;2</title>
<path fill="none" stroke="black" d="M236.3,-698.91C242.61,-690.01 249.35,-680.51 255.86,-671.33"/>
<polygon fill="black" stroke="black" points="258.82,-673.2 261.75,-663.02 253.11,-669.15 258.82,-673.2"/>
<text text-anchor="middle" x="265.94" y="-683.97" font-family="Helvetica,sans-Serif" font-size="14.00">False</text>
</g>
<!-- 3 -->
<g id="node4" class="node">
<title>3</title>
<polygon fill="#3fe685" stroke="black" points="281.5,-544 113.5,-544 113.5,-461 281.5,-461 281.5,-544"/>
<text text-anchor="middle" x="197.5" y="-528.8" font-family="Helvetica,sans-Serif" font-size="14.00">petal width (cm) &lt;= 1.65</text>
<text text-anchor="middle" x="197.5" y="-513.8" font-family="Helvetica,sans-Serif" font-size="14.00">gini = 0.057</text>
<text text-anchor="middle" x="197.5" y="-498.8" font-family="Helvetica,sans-Serif" font-size="14.00">samples = 34</text>
<text text-anchor="middle" x="197.5" y="-483.8" font-family="Helvetica,sans-Serif" font-size="14.00">value = [0, 33, 1]</text>
<text text-anchor="middle" x="197.5" y="-468.8" font-family="Helvetica,sans-Serif" font-size="14.00">class = versicolor</text>
</g>
<!-- 2&#45;&gt;3 -->
<g id="edge3" class="edge">
<title>2&#45;&gt;3</title>
<path fill="none" stroke="black" d="M258.23,-579.91C251.09,-570.92 243.46,-561.32 236.09,-552.05"/>
<polygon fill="black" stroke="black" points="238.67,-549.67 229.71,-544.02 233.19,-554.03 238.67,-549.67"/>
</g>
<!-- 6 -->
<g id="node7" class="node">
<title>6</title>
<polygon fill="#8d4ce7" stroke="black" points="467.5,-544 299.5,-544 299.5,-461 467.5,-461 467.5,-544"/>
<text text-anchor="middle" x="383.5" y="-528.8" font-family="Helvetica,sans-Serif" font-size="14.00">petal width (cm) &lt;= 1.75</text>
<text text-anchor="middle" x="383.5" y="-513.8" font-family="Helvetica,sans-Serif" font-size="14.00">gini = 0.159</text>
<text text-anchor="middle" x="383.5" y="-498.8" font-family="Helvetica,sans-Serif" font-size="14.00">samples = 46</text>
<text text-anchor="middle" x="383.5" y="-483.8" font-family="Helvetica,sans-Serif" font-size="14.00">value = [0, 4, 42]</text>
<text text-anchor="middle" x="383.5" y="-468.8" font-family="Helvetica,sans-Serif" font-size="14.00">class = virginica</text>
</g>
<!-- 2&#45;&gt;6 -->
<g id="edge6" class="edge">
<title>2&#45;&gt;6</title>
<path fill="none" stroke="black" d="M322.77,-579.91C329.91,-570.92 337.54,-561.32 344.91,-552.05"/>
<polygon fill="black" stroke="black" points="347.81,-554.03 351.29,-544.02 342.33,-549.67 347.81,-554.03"/>
</g>
<!-- 4 -->
<g id="node5" class="node">
<title>4</title>
<polygon fill="#39e581" stroke="black" points="127,-417.5 0,-417.5 0,-349.5 127,-349.5 127,-417.5"/>
<text text-anchor="middle" x="63.5" y="-402.3" font-family="Helvetica,sans-Serif" font-size="14.00">gini = 0.0</text>
<text text-anchor="middle" x="63.5" y="-387.3" font-family="Helvetica,sans-Serif" font-size="14.00">samples = 33</text>
<text text-anchor="middle" x="63.5" y="-372.3" font-family="Helvetica,sans-Serif" font-size="14.00">value = [0, 33, 0]</text>
<text text-anchor="middle" x="63.5" y="-357.3" font-family="Helvetica,sans-Serif" font-size="14.00">class = versicolor</text>
</g>
<!-- 3&#45;&gt;4 -->
<g id="edge4" class="edge">
<title>3&#45;&gt;4</title>
<path fill="none" stroke="black" d="M151.01,-460.91C137.49,-449.1 122.73,-436.22 109.25,-424.45"/>
<polygon fill="black" stroke="black" points="111.32,-421.61 101.49,-417.67 106.72,-426.88 111.32,-421.61"/>
</g>
<!-- 5 -->
<g id="node6" class="node">
<title>5</title>
<polygon fill="#8139e5" stroke="black" points="261.5,-417.5 145.5,-417.5 145.5,-349.5 261.5,-349.5 261.5,-417.5"/>
<text text-anchor="middle" x="203.5" y="-402.3" font-family="Helvetica,sans-Serif" font-size="14.00">gini = 0.0</text>
<text text-anchor="middle" x="203.5" y="-387.3" font-family="Helvetica,sans-Serif" font-size="14.00">samples = 1</text>
<text text-anchor="middle" x="203.5" y="-372.3" font-family="Helvetica,sans-Serif" font-size="14.00">value = [0, 0, 1]</text>
<text text-anchor="middle" x="203.5" y="-357.3" font-family="Helvetica,sans-Serif" font-size="14.00">class = virginica</text>
</g>
<!-- 3&#45;&gt;5 -->
<g id="edge5" class="edge">
<title>3&#45;&gt;5</title>
<path fill="none" stroke="black" d="M199.58,-460.91C200.13,-450.2 200.72,-438.62 201.28,-427.78"/>
<polygon fill="black" stroke="black" points="204.78,-427.83 201.8,-417.67 197.79,-427.47 204.78,-427.83"/>
</g>
<!-- 7 -->
<g id="node8" class="node">
<title>7</title>
<polygon fill="#e0cef8" stroke="black" points="464.5,-425 290.5,-425 290.5,-342 464.5,-342 464.5,-425"/>
<text text-anchor="middle" x="377.5" y="-409.8" font-family="Helvetica,sans-Serif" font-size="14.00">petal length (cm) &lt;= 5.35</text>
<text text-anchor="middle" x="377.5" y="-394.8" font-family="Helvetica,sans-Serif" font-size="14.00">gini = 0.49</text>
<text text-anchor="middle" x="377.5" y="-379.8" font-family="Helvetica,sans-Serif" font-size="14.00">samples = 7</text>
<text text-anchor="middle" x="377.5" y="-364.8" font-family="Helvetica,sans-Serif" font-size="14.00">value = [0, 3, 4]</text>
<text text-anchor="middle" x="377.5" y="-349.8" font-family="Helvetica,sans-Serif" font-size="14.00">class = virginica</text>
</g>
<!-- 6&#45;&gt;7 -->
<g id="edge7" class="edge">
<title>6&#45;&gt;7</title>
<path fill="none" stroke="black" d="M381.42,-460.91C380.99,-452.56 380.53,-443.67 380.09,-435.02"/>
<polygon fill="black" stroke="black" points="383.59,-434.83 379.58,-425.02 376.59,-435.19 383.59,-434.83"/>
</g>
<!-- 14 -->
<g id="node15" class="node">
<title>14</title>
<polygon fill="#843ee6" stroke="black" points="656.5,-425 482.5,-425 482.5,-342 656.5,-342 656.5,-425"/>
<text text-anchor="middle" x="569.5" y="-409.8" font-family="Helvetica,sans-Serif" font-size="14.00">petal length (cm) &lt;= 4.85</text>
<text text-anchor="middle" x="569.5" y="-394.8" font-family="Helvetica,sans-Serif" font-size="14.00">gini = 0.05</text>
<text text-anchor="middle" x="569.5" y="-379.8" font-family="Helvetica,sans-Serif" font-size="14.00">samples = 39</text>
<text text-anchor="middle" x="569.5" y="-364.8" font-family="Helvetica,sans-Serif" font-size="14.00">value = [0, 1, 38]</text>
<text text-anchor="middle" x="569.5" y="-349.8" font-family="Helvetica,sans-Serif" font-size="14.00">class = virginica</text>
</g>
<!-- 6&#45;&gt;14 -->
<g id="edge14" class="edge">
<title>6&#45;&gt;14</title>
<path fill="none" stroke="black" d="M448.03,-460.91C463.61,-451.11 480.37,-440.56 496.32,-430.53"/>
<polygon fill="black" stroke="black" points="498.48,-433.31 505.08,-425.02 494.75,-427.38 498.48,-433.31"/>
</g>
<!-- 8 -->
<g id="node9" class="node">
<title>8</title>
<polygon fill="#bdf6d5" stroke="black" points="310.5,-306 140.5,-306 140.5,-223 310.5,-223 310.5,-306"/>
<text text-anchor="middle" x="225.5" y="-290.8" font-family="Helvetica,sans-Serif" font-size="14.00">sepal length (cm) &lt;= 6.5</text>
<text text-anchor="middle" x="225.5" y="-275.8" font-family="Helvetica,sans-Serif" font-size="14.00">gini = 0.48</text>
<text text-anchor="middle" x="225.5" y="-260.8" font-family="Helvetica,sans-Serif" font-size="14.00">samples = 5</text>
<text text-anchor="middle" x="225.5" y="-245.8" font-family="Helvetica,sans-Serif" font-size="14.00">value = [0, 3, 2]</text>
<text text-anchor="middle" x="225.5" y="-230.8" font-family="Helvetica,sans-Serif" font-size="14.00">class = versicolor</text>
</g>
<!-- 7&#45;&gt;8 -->
<g id="edge8" class="edge">
<title>7&#45;&gt;8</title>
<path fill="none" stroke="black" d="M324.76,-341.91C312.38,-332.38 299.09,-322.15 286.39,-312.37"/>
<polygon fill="black" stroke="black" points="288.2,-309.35 278.14,-306.02 283.93,-314.89 288.2,-309.35"/>
</g>
<!-- 13 -->
<g id="node14" class="node">
<title>13</title>
<polygon fill="#8139e5" stroke="black" points="444.5,-298.5 328.5,-298.5 328.5,-230.5 444.5,-230.5 444.5,-298.5"/>
<text text-anchor="middle" x="386.5" y="-283.3" font-family="Helvetica,sans-Serif" font-size="14.00">gini = 0.0</text>
<text text-anchor="middle" x="386.5" y="-268.3" font-family="Helvetica,sans-Serif" font-size="14.00">samples = 2</text>
<text text-anchor="middle" x="386.5" y="-253.3" font-family="Helvetica,sans-Serif" font-size="14.00">value = [0, 0, 2]</text>
<text text-anchor="middle" x="386.5" y="-238.3" font-family="Helvetica,sans-Serif" font-size="14.00">class = virginica</text>
</g>
<!-- 7&#45;&gt;13 -->
<g id="edge13" class="edge">
<title>7&#45;&gt;13</title>
<path fill="none" stroke="black" d="M380.62,-341.91C381.45,-331.2 382.34,-319.62 383.17,-308.78"/>
<polygon fill="black" stroke="black" points="386.67,-308.91 383.95,-298.67 379.69,-308.37 386.67,-308.91"/>
</g>
<!-- 9 -->
<g id="node10" class="node">
<title>9</title>
<polygon fill="#c09cf2" stroke="black" points="246.5,-187 78.5,-187 78.5,-104 246.5,-104 246.5,-187"/>
<text text-anchor="middle" x="162.5" y="-171.8" font-family="Helvetica,sans-Serif" font-size="14.00">petal width (cm) &lt;= 1.55</text>
<text text-anchor="middle" x="162.5" y="-156.8" font-family="Helvetica,sans-Serif" font-size="14.00">gini = 0.444</text>
<text text-anchor="middle" x="162.5" y="-141.8" font-family="Helvetica,sans-Serif" font-size="14.00">samples = 3</text>
<text text-anchor="middle" x="162.5" y="-126.8" font-family="Helvetica,sans-Serif" font-size="14.00">value = [0, 1, 2]</text>
<text text-anchor="middle" x="162.5" y="-111.8" font-family="Helvetica,sans-Serif" font-size="14.00">class = virginica</text>
</g>
<!-- 8&#45;&gt;9 -->
<g id="edge9" class="edge">
<title>8&#45;&gt;9</title>
<path fill="none" stroke="black" d="M203.64,-222.91C198.95,-214.2 193.94,-204.9 189.1,-195.89"/>
<polygon fill="black" stroke="black" points="192.14,-194.17 184.32,-187.02 185.98,-197.48 192.14,-194.17"/>
</g>
<!-- 12 -->
<g id="node13" class="node">
<title>12</title>
<polygon fill="#39e581" stroke="black" points="392,-179.5 265,-179.5 265,-111.5 392,-111.5 392,-179.5"/>
<text text-anchor="middle" x="328.5" y="-164.3" font-family="Helvetica,sans-Serif" font-size="14.00">gini = 0.0</text>
<text text-anchor="middle" x="328.5" y="-149.3" font-family="Helvetica,sans-Serif" font-size="14.00">samples = 2</text>
<text text-anchor="middle" x="328.5" y="-134.3" font-family="Helvetica,sans-Serif" font-size="14.00">value = [0, 2, 0]</text>
<text text-anchor="middle" x="328.5" y="-119.3" font-family="Helvetica,sans-Serif" font-size="14.00">class = versicolor</text>
</g>
<!-- 8&#45;&gt;12 -->
<g id="edge12" class="edge">
<title>8&#45;&gt;12</title>
<path fill="none" stroke="black" d="M261.24,-222.91C271.34,-211.43 282.34,-198.94 292.46,-187.44"/>
<polygon fill="black" stroke="black" points="295.32,-189.49 299.3,-179.67 290.07,-184.86 295.32,-189.49"/>
</g>
<!-- 10 -->
<g id="node11" class="node">
<title>10</title>
<polygon fill="#8139e5" stroke="black" points="150.5,-68 34.5,-68 34.5,0 150.5,0 150.5,-68"/>
<text text-anchor="middle" x="92.5" y="-52.8" font-family="Helvetica,sans-Serif" font-size="14.00">gini = 0.0</text>
<text text-anchor="middle" x="92.5" y="-37.8" font-family="Helvetica,sans-Serif" font-size="14.00">samples = 2</text>
<text text-anchor="middle" x="92.5" y="-22.8" font-family="Helvetica,sans-Serif" font-size="14.00">value = [0, 0, 2]</text>
<text text-anchor="middle" x="92.5" y="-7.8" font-family="Helvetica,sans-Serif" font-size="14.00">class = virginica</text>
</g>
<!-- 9&#45;&gt;10 -->
<g id="edge10" class="edge">
<title>9&#45;&gt;10</title>
<path fill="none" stroke="black" d="M136.43,-103.73C130.84,-94.97 124.91,-85.7 119.29,-76.91"/>
<polygon fill="black" stroke="black" points="122.12,-74.84 113.79,-68.3 116.22,-78.61 122.12,-74.84"/>
</g>
<!-- 11 -->
<g id="node12" class="node">
<title>11</title>
<polygon fill="#39e581" stroke="black" points="296,-68 169,-68 169,0 296,0 296,-68"/>
<text text-anchor="middle" x="232.5" y="-52.8" font-family="Helvetica,sans-Serif" font-size="14.00">gini = 0.0</text>
<text text-anchor="middle" x="232.5" y="-37.8" font-family="Helvetica,sans-Serif" font-size="14.00">samples = 1</text>
<text text-anchor="middle" x="232.5" y="-22.8" font-family="Helvetica,sans-Serif" font-size="14.00">value = [0, 1, 0]</text>
<text text-anchor="middle" x="232.5" y="-7.8" font-family="Helvetica,sans-Serif" font-size="14.00">class = versicolor</text>
</g>
<!-- 9&#45;&gt;11 -->
<g id="edge11" class="edge">
<title>9&#45;&gt;11</title>
<path fill="none" stroke="black" d="M188.57,-103.73C194.16,-94.97 200.09,-85.7 205.71,-76.91"/>
<polygon fill="black" stroke="black" points="208.78,-78.61 211.21,-68.3 202.88,-74.84 208.78,-78.61"/>
</g>
<!-- 15 -->
<g id="node16" class="node">
<title>15</title>
<polygon fill="#ffffff" stroke="black" points="643.5,-306 479.5,-306 479.5,-223 643.5,-223 643.5,-306"/>
<text text-anchor="middle" x="561.5" y="-290.8" font-family="Helvetica,sans-Serif" font-size="14.00">sepal width (cm) &lt;= 3.1</text>
<text text-anchor="middle" x="561.5" y="-275.8" font-family="Helvetica,sans-Serif" font-size="14.00">gini = 0.5</text>
<text text-anchor="middle" x="561.5" y="-260.8" font-family="Helvetica,sans-Serif" font-size="14.00">samples = 2</text>
<text text-anchor="middle" x="561.5" y="-245.8" font-family="Helvetica,sans-Serif" font-size="14.00">value = [0, 1, 1]</text>
<text text-anchor="middle" x="561.5" y="-230.8" font-family="Helvetica,sans-Serif" font-size="14.00">class = versicolor</text>
</g>
<!-- 14&#45;&gt;15 -->
<g id="edge15" class="edge">
<title>14&#45;&gt;15</title>
<path fill="none" stroke="black" d="M566.72,-341.91C566.15,-333.56 565.55,-324.67 564.95,-316.02"/>
<polygon fill="black" stroke="black" points="568.44,-315.76 564.27,-306.02 561.46,-316.24 568.44,-315.76"/>
</g>
<!-- 18 -->
<g id="node19" class="node">
<title>18</title>
<polygon fill="#8139e5" stroke="black" points="783,-298.5 662,-298.5 662,-230.5 783,-230.5 783,-298.5"/>
<text text-anchor="middle" x="722.5" y="-283.3" font-family="Helvetica,sans-Serif" font-size="14.00">gini = 0.0</text>
<text text-anchor="middle" x="722.5" y="-268.3" font-family="Helvetica,sans-Serif" font-size="14.00">samples = 37</text>
<text text-anchor="middle" x="722.5" y="-253.3" font-family="Helvetica,sans-Serif" font-size="14.00">value = [0, 0, 37]</text>
<text text-anchor="middle" x="722.5" y="-238.3" font-family="Helvetica,sans-Serif" font-size="14.00">class = virginica</text>
</g>
<!-- 14&#45;&gt;18 -->
<g id="edge18" class="edge">
<title>14&#45;&gt;18</title>
<path fill="none" stroke="black" d="M622.58,-341.91C638.31,-329.88 655.5,-316.73 671.12,-304.79"/>
<polygon fill="black" stroke="black" points="673.31,-307.52 679.13,-298.67 669.06,-301.96 673.31,-307.52"/>
</g>
<!-- 16 -->
<g id="node17" class="node">
<title>16</title>
<polygon fill="#8139e5" stroke="black" points="572.5,-179.5 456.5,-179.5 456.5,-111.5 572.5,-111.5 572.5,-179.5"/>
<text text-anchor="middle" x="514.5" y="-164.3" font-family="Helvetica,sans-Serif" font-size="14.00">gini = 0.0</text>
<text text-anchor="middle" x="514.5" y="-149.3" font-family="Helvetica,sans-Serif" font-size="14.00">samples = 1</text>
<text text-anchor="middle" x="514.5" y="-134.3" font-family="Helvetica,sans-Serif" font-size="14.00">value = [0, 0, 1]</text>
<text text-anchor="middle" x="514.5" y="-119.3" font-family="Helvetica,sans-Serif" font-size="14.00">class = virginica</text>
</g>
<!-- 15&#45;&gt;16 -->
<g id="edge16" class="edge">
<title>15&#45;&gt;16</title>
<path fill="none" stroke="black" d="M545.19,-222.91C540.81,-211.98 536.05,-200.14 531.62,-189.11"/>
<polygon fill="black" stroke="black" points="534.8,-187.64 527.82,-179.67 528.3,-190.25 534.8,-187.64"/>
</g>
<!-- 17 -->
<g id="node18" class="node">
<title>17</title>
<polygon fill="#39e581" stroke="black" points="718,-179.5 591,-179.5 591,-111.5 718,-111.5 718,-179.5"/>
<text text-anchor="middle" x="654.5" y="-164.3" font-family="Helvetica,sans-Serif" font-size="14.00">gini = 0.0</text>
<text text-anchor="middle" x="654.5" y="-149.3" font-family="Helvetica,sans-Serif" font-size="14.00">samples = 1</text>
<text text-anchor="middle" x="654.5" y="-134.3" font-family="Helvetica,sans-Serif" font-size="14.00">value = [0, 1, 0]</text>
<text text-anchor="middle" x="654.5" y="-119.3" font-family="Helvetica,sans-Serif" font-size="14.00">class = versicolor</text>
</g>
<!-- 15&#45;&gt;17 -->
<g id="edge17" class="edge">
<title>15&#45;&gt;17</title>
<path fill="none" stroke="black" d="M593.77,-222.91C602.8,-211.54 612.63,-199.18 621.69,-187.77"/>
<polygon fill="black" stroke="black" points="624.65,-189.67 628.14,-179.67 619.17,-185.32 624.65,-189.67"/>
</g>
</g>
</svg>
